<?xml version="1.0" encoding="UTF-8"?><svg id="a" xmlns="http://www.w3.org/2000/svg" xmlns:xlink="http://www.w3.org/1999/xlink" viewBox="0 0 765.01 500"><defs><style>.l{fill:url(#c);}.m{fill:url(#f);}.n{fill:url(#g);}.o{fill:url(#b);}.p{fill:url(#i);}.q{fill:url(#h);}.r{fill:url(#d);}.s{fill:url(#e);}.t{fill:url(#j);}.u{fill:url(#k);}</style><linearGradient id="b" x1="361.83" y1="319.98" x2="361.83" y2="268.95" gradientTransform="matrix(1, 0, 0, 1, 0, 0)" gradientUnits="userSpaceOnUse"><stop offset="0" stop-color="#fff"/><stop offset="1" stop-color="#fff" stop-opacity="0"/></linearGradient><linearGradient id="c" x1="686.58" y1="118.45" x2="686.58" y2="67.42" xlink:href="#b"/><linearGradient id="d" x1="83.31" y1="394.36" x2="83.31" y2="343.32" xlink:href="#b"/><linearGradient id="e" x1="390.01" y1="271.13" x2="390.01" y2="235.88" xlink:href="#b"/><linearGradient id="f" x1="654.15" y1="448.29" x2="654.15" y2="413.04" xlink:href="#b"/><linearGradient id="g" x1="525.31" y1="85.04" x2="525.31" y2="49.79" xlink:href="#b"/><linearGradient id="h" x1="711.09" y1="185.3" x2="711.09" y2="150.04" xlink:href="#b"/><linearGradient id="i" x1="484.23" y1="85.04" x2="484.23" y2="49.79" xlink:href="#b"/><linearGradient id="j" x1="132.75" y1="61.89" x2="132.75" y2="26.63" xlink:href="#b"/><linearGradient id="k" x1="95.97" y1="101.82" x2="95.97" y2="66.56" xlink:href="#b"/></defs><path class="o" d="M359.55,317.61l2.02-48.57c0-.05,.05-.09,.1-.09,.05,0,.09,.04,.09,.09l2.35,48.56c.06,1.26-.91,2.33-2.17,2.39s-2.33-.91-2.39-2.17c0-.07,0-.14,0-.2Z"/><path class="l" d="M684.31,116.08l2.02-48.57c0-.05,.05-.09,.1-.09,.05,0,.09,.04,.09,.09l2.35,48.56c.06,1.26-.91,2.33-2.17,2.39-1.26,.06-2.33-.91-2.39-2.17,0-.07,0-.14,0-.2Z"/><path class="r" d="M81.03,391.99l2.02-48.57c0-.05,.05-.09,.1-.09,.05,0,.09,.04,.09,.09l2.35,48.56c.06,1.26-.91,2.33-2.17,2.39-1.26,.06-2.33-.91-2.39-2.17,0-.07,0-.14,0-.2Z"/><path class="s" d="M388.43,269.49l1.39-33.55s.03-.06,.07-.06c.03,0,.06,.03,.06,.06l1.62,33.54c.04,.87-.63,1.61-1.5,1.65-.87,.04-1.61-.63-1.65-1.5,0-.05,0-.1,0-.14Z"/><path class="m" d="M652.57,446.66l1.39-33.55s.03-.06,.07-.06c.03,0,.06,.03,.06,.06l1.62,33.54c.04,.87-.63,1.61-1.5,1.65-.87,.04-1.61-.63-1.65-1.5,0-.05,0-.1,0-.14Z"/><path class="n" d="M523.74,83.4l1.39-33.55s.03-.06,.07-.06c.03,0,.06,.03,.06,.06l1.62,33.54c.04,.87-.63,1.61-1.5,1.65-.87,.04-1.61-.63-1.65-1.5,0-.05,0-.1,0-.14Z"/><path class="q" d="M709.52,183.66l1.39-33.55s.03-.06,.07-.06c.03,0,.06,.03,.06,.06l1.62,33.54c.04,.87-.63,1.61-1.5,1.65-.87,.04-1.61-.63-1.65-1.5,0-.05,0-.1,0-.14Z"/><path class="p" d="M482.66,83.4l1.39-33.55s.03-.06,.07-.06c.03,0,.06,.03,.06,.06l1.62,33.54c.04,.87-.63,1.61-1.5,1.65-.87,.04-1.61-.63-1.65-1.5,0-.05,0-.1,0-.14Z"/><path class="t" d="M131.18,60.25l1.39-33.55s.03-.06,.07-.06c.03,0,.06,.03,.06,.06l1.62,33.54c.04,.87-.63,1.61-1.5,1.65-.87,.04-1.61-.63-1.65-1.5,0-.05,0-.1,0-.14Z"/><path class="u" d="M94.4,100.18l1.39-33.55s.03-.06,.07-.06c.03,0,.06,.03,.06,.06l1.62,33.54c.04,.87-.63,1.61-1.5,1.65-.87,.04-1.61-.63-1.65-1.5,0-.05,0-.1,0-.14Z"/></svg>