<svg id="Layer_1" data-name="Layer 1" xmlns="http://www.w3.org/2000/svg" xmlns:xlink="http://www.w3.org/1999/xlink" viewBox="0 0 867.65 375.3"><defs><style>.cls-1{fill:none;}.cls-2{fill:#0a0a0a;}.cls-3{fill:#020202;}.cls-4{fill:#070606;}.cls-5{fill:#0c0909;}.cls-6{fill:#fcfafa;}.cls-7{clip-path:url(#clip-path);}.cls-8{clip-path:url(#clip-path-2);}.cls-9{clip-path:url(#clip-path-3);}</style><clipPath id="clip-path" transform="translate(-92.85 -374.09)"><rect class="cls-1" x="279.57" y="374.09" width="107.92" height="96.03"/></clipPath><clipPath id="clip-path-2" transform="translate(-92.85 -374.09)"><rect class="cls-1" x="296.9" y="482.58" width="72.69" height="267.97"/></clipPath><clipPath id="clip-path-3" transform="translate(-92.85 -374.09)"><polygon class="cls-1" points="167.21 604.35 333.21 456.64 499.21 604.35 333.21 752.06 167.21 604.35"/></clipPath></defs><path d="M92.85,508.26v3.31s23-.51,24.26,35,.12,107.36.12,107.36-.25,27.2-15.83,33.71c0,0-6.34,2.12-7.78,2.72v3.49h38.85V508.26H92.85" transform="translate(-92.85 -374.09)"/><path d="M190.38,509.53c-53.61-2.55-44.93-1.27-44.93-1.27V693.83h40.17v-4.94s-20.64,4.6-25.36-23a160.87,160.87,0,0,1-2-24.89V614.47s42.9,18.66,73-14.64S244,512.09,190.38,509.53ZM220,589.45c-20.43,28.08-60.09,13.19-61.79,11.43s-.52-48.79.51-64.62,15.83-14,15.83-14c2.33-.76,13,.3,25.42,1.47C218.28,525.5,240.43,561.36,220,589.45Z" transform="translate(-92.85 -374.09)"/><path class="cls-2" d="M235.83,517.45s25.53,28.85,18.38,56.17-18.38,37.53-18.38,37.53S267,600.94,272.09,564.3,235.83,517.45,235.83,517.45Z" transform="translate(-92.85 -374.09)"/><path d="M387.49,508.42v7.83s16.85,10.21,30.13,25.53,50.72,62.13,50.72,62.13L416.6,664.42s-16.6,17.87-29.11,22.21v5.74h57.57v-3.19s-16.21-3.06-12-17.61,43.79-56.69,43.79-56.69L516,664s11.57,12.09,3.74,20.09c0,0-3.83,4.51-6.29,5.61v3.66h42.17v-2.76L411,508.42Z" transform="translate(-92.85 -374.09)"/><path class="cls-3" d="M424.6,508.42s146.72,185,147.49,184.93,32.68,0,32.68,0l-1.54-4.93s-8.17,1.78-25-14.81S502.13,582,502.13,582s36.76-45.28,38-46.64,23.6-22,37.79-22a4.75,4.75,0,0,1,1.87.25V509.1H516.94v2.81s13.53,4.51,12.93,9.95.68,6.81-9.53,19.92-26.21,32.59-26.21,32.59l-34.9-45.87s-5-6.3-.85-12.25c0,0,2.9-3.65,4.4-4v-3.35Z" transform="translate(-92.85 -374.09)"/><path d="M613.45,508.42v4.34s22.46,5.1,22.72,32.68,0,117.19,0,117.19-1.79,21.45-15.57,24.77c0,0-3.15,1-5.28,1.61v4.34h37V508.42Z" transform="translate(-92.85 -374.09)"/><path d="M663.23,508.42V693.35H767.91l13.28-40.42h-5s-8.42,24.12-37.66,25-58.21,0-58.21,0V603H728.6s23.1,0,24.63,15.32v11.11H758V569.31h-4.22s-3.06,16.6-14.29,19-61.54,0-61.54,0l1.54-54s-.9-10.08,9.95-11.11,49.28-.25,49.28-.25,18.26,2.17,21.83,13.4,2.94,10.6,2.94,10.6l4.85.13V508.42Z" transform="translate(-92.85 -374.09)"/><path class="cls-4" d="M788.08,507.94v4.94s20.76-2.72,22.29,31.83,0,105.53,0,105.53,1.19,22.81-14.81,35.41c0,0-4.72,2.68-6.38,3.57v3.11h36V507.94Z" transform="translate(-92.85 -374.09)"/><path class="cls-5" d="M836.67,507.94V692.88H945.18l15.32-45.53h-5.74s-9.58,29.45-28,28.94l-62.17.93s-9.83,1.53-11.49-14.42-.89-123.54-.89-123.54.51-16.34,11.57-22.63c0,0,8.72-5.75,11.66-5.24v-3.45Z" transform="translate(-92.85 -374.09)"/><path class="cls-6" d="M863.82,516.63" transform="translate(-92.85 -374.09)"/><g class="cls-7"><path d="M333.53,446.12c-14.88,0-27-10.77-27-24s12.1-24,27-24,27,10.77,27,24S348.4,446.12,333.53,446.12Zm52-15.44a1.82,1.82,0,0,0,1.92-1.71V415.25a1.84,1.84,0,0,0-1.92-1.72H375.06a5.71,5.71,0,0,1-5.35-3.3c-.35-.84-.73-1.65-1.15-2.46a4.75,4.75,0,0,1,1.17-5.75l7.39-6.59a1.57,1.57,0,0,0,0-2.42l-10.9-9.69a2,2,0,0,0-1.36-.52,2,2,0,0,0-1.36.5l-7.42,6.6a6.3,6.3,0,0,1-6.46,1c-.9-.37-1.81-.71-2.73-1a5.21,5.21,0,0,1-3.75-4.8v-9.32a1.84,1.84,0,0,0-1.92-1.72H325.82a1.84,1.84,0,0,0-1.93,1.71v9.35a5.16,5.16,0,0,1-3.71,4.77q-1.41.46-2.76,1a6.3,6.3,0,0,1-6.46-1l-7.41-6.58a2.07,2.07,0,0,0-2.72,0L289.93,393a1.6,1.6,0,0,0-.58,1.21,1.62,1.62,0,0,0,.57,1.2l7.41,6.6a4.75,4.75,0,0,1,1.17,5.75c-.41.8-.8,1.61-1.14,2.44a5.79,5.79,0,0,1-5.39,3.32H281.49a1.84,1.84,0,0,0-1.92,1.72V429a1.82,1.82,0,0,0,1.92,1.71H292a5.79,5.79,0,0,1,5.39,3.32c.34.83.73,1.65,1.14,2.44a4.74,4.74,0,0,1-1.17,5.75l-7.4,6.59a1.67,1.67,0,0,0-.58,1.23,1.59,1.59,0,0,0,.58,1.2l10.89,9.7a2,2,0,0,0,1.36.51,2.07,2.07,0,0,0,1.36-.5l7.42-6.59a6.15,6.15,0,0,1,4.09-1.5,6.28,6.28,0,0,1,2.37.45c.9.37,1.81.71,2.73,1a5.2,5.2,0,0,1,3.74,4.81v9.31a1.84,1.84,0,0,0,1.93,1.72h15.42a1.83,1.83,0,0,0,1.92-1.71v-9.34a5.18,5.18,0,0,1,3.73-4.78c.93-.31,1.85-.64,2.75-1a6.31,6.31,0,0,1,6.46,1.05l7.4,6.57a2.08,2.08,0,0,0,2.73,0l10.89-9.7a1.57,1.57,0,0,0,0-2.42l-7.41-6.61a4.74,4.74,0,0,1-1.17-5.75c.41-.79.8-1.61,1.13-2.44a5.8,5.8,0,0,1,5.4-3.32h10.48" transform="translate(-92.85 -374.09)"/></g><g class="cls-8"><g class="cls-9"><g class="cls-9"><g class="cls-9"><path d="M309.74,483.7c-6.91,0-12.5,5-12.5,11.12V691l32.15,56.35a4.57,4.57,0,0,0,7.65,0L369.19,691V494.82c0-6.14-5.6-11.12-12.51-11.12ZM340,683.82s0,0,0,0a13.8,13.8,0,0,0-13.56,0s0,0,0,0V529c0-3.33,3.05-6,6.78-6a7.15,7.15,0,0,1,4.79,1.76,5.7,5.7,0,0,1,2,4.27Zm4,3.47s0,.07,0,.08,0-.07-.06-.08H344ZM305.07,529c0-3.31,3-6,6.76-6s6.79,2.7,6.78,6v154.8a.07.07,0,0,1,0,0,13.65,13.65,0,0,0-6.78-1.79,13.46,13.46,0,0,0-6.77,1.79Zm17.5,158.29s0,.07-.05.08,0,0-.06-.08h.06S322.57,687.29,322.57,687.29Zm38.79,2-20,35H325l-20-35v-.82a9.1,9.1,0,0,1,6.78-2.9c4.8,0,8.71,3.48,8.71,7.75a1.87,1.87,0,0,0,2,1.74,1.82,1.82,0,0,0,2-1.74c0-4.27,3.91-7.75,8.73-7.77s8.74,3.5,8.74,7.77a1.82,1.82,0,0,0,2,1.74,1.86,1.86,0,0,0,1.95-1.74c0-4.27,3.92-7.75,8.72-7.75a9.11,9.11,0,0,1,6.78,2.9Zm0-160.29V683.87a13.72,13.72,0,0,0-13.55,0,.12.12,0,0,1,0,0V529c0-3.33,3-6,6.78-6a7.2,7.2,0,0,1,4.78,1.76A5.71,5.71,0,0,1,361.36,529Zm0-32.34v9.08a3.76,3.76,0,0,1-4,3.54H309.06a3.76,3.76,0,0,1-4-3.54v-9.08c0-3.31,3-6,6.74-6h42.81C358.35,490.66,361.36,493.35,361.36,496.66Z" transform="translate(-92.85 -374.09)"/></g></g></g></g></svg>