<?xml version="1.0" encoding="UTF-8"?><svg id="a" xmlns="http://www.w3.org/2000/svg" viewBox="0 0 867.65 375.36"><defs><style>.b{fill:#fff;}</style></defs><path class="b" d="M0,134.2v3.31s23-.51,24.26,35,.12,107.36,.12,107.36c0,0-.25,27.2-15.83,33.71,0,0-6.34,2.12-7.78,2.72v3.49H39.62V134.2H0"/><path class="b" d="M97.53,135.47c-53.61-2.55-44.93-1.27-44.93-1.27v185.57h40.17v-4.94s-20.64,4.6-25.36-23c-1.31-8.23-1.98-16.55-2-24.89v-26.53s42.9,18.66,73-14.64,12.74-87.74-40.88-90.3Zm29.62,79.92c-20.43,28.08-60.09,13.19-61.79,11.43s-.52-48.79,.51-64.62,15.83-14,15.83-14c2.33-.76,13,.3,25.42,1.47,18.31,1.77,40.46,37.63,20.03,65.72Z"/><path class="b" d="M142.98,143.39s25.53,28.85,18.38,56.17-18.38,37.53-18.38,37.53c0,0,31.17-10.21,36.26-46.85s-36.26-46.85-36.26-46.85Z"/><path class="b" d="M294.64,134.36v7.83s16.85,10.21,30.13,25.53,50.72,62.13,50.72,62.13l-51.74,60.51s-16.6,17.87-29.11,22.21v5.74h57.57v-3.19s-16.21-3.06-12-17.61,43.79-56.69,43.79-56.69l39.15,49.12s11.57,12.09,3.74,20.09c0,0-3.83,4.51-6.29,5.61v3.66h42.17v-2.76l-144.62-182.18h-23.51Z"/><path class="b" d="M331.75,134.36s146.72,185,147.49,184.93,32.68,0,32.68,0l-1.54-4.93s-8.17,1.78-25-14.81-76.1-91.61-76.1-91.61c0,0,36.76-45.28,38-46.64s23.6-22,37.79-22c.63-.04,1.27,.04,1.87,.25v-4.51h-62.85v2.81s13.53,4.51,12.93,9.95,.68,6.81-9.53,19.92-26.21,32.59-26.21,32.59l-34.9-45.87s-5-6.3-.85-12.25c0,0,2.9-3.65,4.4-4v-3.35l-38.18-.48Z"/><path class="b" d="M520.6,134.36v4.34s22.46,5.1,22.72,32.68,0,117.19,0,117.19c0,0-1.79,21.45-15.57,24.77,0,0-3.15,1-5.28,1.61v4.34h37V134.36h-38.87Z"/><path class="b" d="M570.38,134.36v184.93h104.68l13.28-40.42h-5s-8.42,24.12-37.66,25-58.21,0-58.21,0v-74.93h48.28s23.1,0,24.63,15.32v11.11h4.77v-60.12h-4.22s-3.06,16.6-14.29,19-61.54,0-61.54,0l1.54-54s-.9-10.08,9.95-11.11,49.28-.25,49.28-.25c0,0,18.26,2.17,21.83,13.4s2.94,10.6,2.94,10.6l4.85,.13v-38.66h-105.11Z"/><path class="b" d="M695.23,133.88v4.94s20.76-2.72,22.29,31.83c1.53,34.55,0,105.53,0,105.53,0,0,1.19,22.81-14.81,35.41,0,0-4.72,2.68-6.38,3.57v3.11h36V133.88h-37.1Z"/><path class="b" d="M743.82,133.88v184.94h108.51l15.32-45.53h-5.74s-9.58,29.45-28,28.94l-62.17,.93s-9.83,1.53-11.49-14.42-.89-123.54-.89-123.54c0,0,.51-16.34,11.57-22.63,0,0,8.72-5.75,11.66-5.24v-3.45h-38.77Z"/><path class="b" d="M240.68,72.06c-14.88,0-27-10.77-27-24s12.1-24,27-24,27,10.77,27,24-12.13,24-27,24Zm52-15.44c1,.06,1.86-.71,1.92-1.71v-13.72c-.06-1-.92-1.77-1.92-1.72h-10.47c-2.28,.07-4.39-1.23-5.35-3.3-.35-.84-.73-1.65-1.15-2.46-.98-1.96-.5-4.33,1.17-5.75l7.39-6.59c.67-.55,.76-1.54,.21-2.21-.06-.08-.13-.15-.21-.21l-10.9-9.69c-.37-.34-.86-.52-1.36-.52-.5,0-.99,.17-1.36,.5l-7.42,6.6c-1.8,1.51-4.29,1.9-6.46,1-.9-.37-1.81-.71-2.73-1-2.15-.63-3.66-2.56-3.75-4.8V1.72c-.06-1-.92-1.77-1.92-1.72h-15.4c-1-.05-1.86,.71-1.93,1.71V11.06c-.08,2.22-1.57,4.15-3.71,4.77-.94,.31-1.86,.64-2.76,1-2.17,.9-4.66,.51-6.46-1l-7.41-6.58c-.78-.68-1.94-.68-2.72,0l-10.9,9.69c-.36,.3-.57,.74-.58,1.21,0,.46,.22,.9,.57,1.2l7.41,6.6c1.67,1.42,2.15,3.79,1.17,5.75-.41,.8-.8,1.61-1.14,2.44-.98,2.08-3.09,3.38-5.39,3.32h-10.48c-1-.05-1.86,.72-1.92,1.72v13.76c.06,1,.92,1.77,1.92,1.71h10.51c2.3-.06,4.41,1.24,5.39,3.32,.34,.83,.73,1.65,1.14,2.44,.99,1.96,.5,4.33-1.17,5.75l-7.4,6.59c-.36,.31-.57,.76-.58,1.23,0,.47,.22,.9,.58,1.2l10.89,9.7c.37,.33,.86,.52,1.36,.51,.5,0,.98-.17,1.36-.5l7.42-6.59c1.13-.98,2.59-1.52,4.09-1.5,.81,0,1.62,.15,2.37,.45,.9,.37,1.81,.71,2.73,1,2.15,.63,3.66,2.57,3.74,4.81v9.31c.06,1,.92,1.77,1.93,1.72h15.42c1,.05,1.86-.71,1.92-1.71v-9.34c.08-2.23,1.59-4.16,3.73-4.78,.93-.31,1.85-.64,2.75-1,2.18-.88,4.67-.48,6.46,1.05l7.4,6.57c.78,.68,1.95,.68,2.73,0l10.89-9.7c.67-.55,.76-1.54,.21-2.21-.06-.08-.13-.15-.21-.21l-7.41-6.61c-1.67-1.42-2.16-3.79-1.17-5.75,.41-.79,.8-1.61,1.13-2.44,.98-2.08,3.1-3.38,5.4-3.32h10.48"/><path class="b" d="M216.89,109.64c-6.91,0-12.5,5-12.5,11.12v196.18l32.15,56.35c1.38,2.11,4.21,2.71,6.33,1.32,.53-.35,.98-.8,1.32-1.32l32.15-56.35V120.76c0-6.14-5.6-11.12-12.51-11.12h-46.94Zm30.26,200.12h0c-4.21-2.37-9.35-2.37-13.56,0h0V154.94c0-3.33,3.05-6,6.78-6,1.76-.02,3.46,.6,4.79,1.76,1.25,1.07,1.98,2.62,2,4.27v154.79Zm3.99,3.47v.08s0-.07-.06-.08h.06Zm-38.93-158.29c0-3.31,3-6,6.76-6s6.79,2.7,6.78,6v154.8h0c-2.07-1.18-4.4-1.79-6.78-1.79-2.38-.01-4.71,.61-6.77,1.79V154.94Zm17.51,158.29s0,.07-.05,.08,0,0-.06-.08h.11Zm38.79,2l-20,35h-16.36l-20-35v-.82c1.75-1.88,4.21-2.93,6.78-2.9,4.8,0,8.71,3.48,8.71,7.75,.07,1.03,.96,1.81,1.99,1.74h0c1,.1,1.89-.63,1.99-1.63,0-.04,0-.07,0-.11,0-4.27,3.91-7.75,8.73-7.77s8.74,3.5,8.74,7.77c.04,1,.89,1.79,1.89,1.75,.04,0,.07,0,.11,0,1.02,.05,1.89-.72,1.95-1.74,0-4.27,3.92-7.75,8.72-7.75,2.57-.03,5.03,1.02,6.78,2.9l-.05,.82Zm0-160.29v154.87c-4.2-2.39-9.35-2.39-13.55,0h0V154.94c0-3.33,3-6,6.78-6,1.75-.02,3.45,.61,4.78,1.76,1.24,1.06,1.96,2.61,1.99,4.24h0Zm0-32.34v9.08c-.12,2.07-1.89,3.66-3.97,3.54h-48.33c-2.07,.13-3.86-1.44-4-3.51v-9.11c0-3.31,3-6,6.74-6h42.81c3.74,0,6.75,2.69,6.75,6h0Z"/></svg>