<?xml version="1.0" encoding="UTF-8"?><svg id="a" xmlns="http://www.w3.org/2000/svg" viewBox="0 0 765.01 500"><defs><style>.b{fill:#fff;}.c{fill:none;stroke:#fff;stroke-linecap:round;stroke-linejoin:round;}</style></defs><g><polygon class="c" points="679.86 344.76 703.33 352.34 698.21 328.09 674.64 320.41 679.86 344.76"/><polygon class="c" points="703.33 352.34 721.72 335.91 716.51 311.56 698.21 328.09 703.33 352.34"/><polygon class="c" points="674.64 320.41 698.21 328.09 716.51 311.56 692.95 303.87 674.64 320.41"/></g><g><polygon class="c" points="61.11 200.52 70.81 219.25 82.29 201.43 72.59 182.58 61.11 200.52"/><polygon class="c" points="70.81 219.24 91.87 220.33 103.35 202.39 82.29 201.43 70.81 219.24"/><polygon class="c" points="72.59 182.58 82.29 201.43 103.35 202.39 93.66 183.55 72.59 182.58"/></g><g><polygon class="c" points="390.01 425.31 393.06 443.54 407.42 431.77 404.41 413.44 390.01 425.31"/><polygon class="c" points="393.06 443.54 410.33 450.11 424.73 438.24 407.42 431.77 393.06 443.54"/><polygon class="c" points="404.41 413.44 407.42 431.77 424.73 438.24 421.72 419.92 404.41 413.44"/></g><path class="c" d="M241.66,76.75c-.87-2.15-1.31-4.48-1.28-6.88,.06-4.75,1.96-9.19,5.36-12.51,7.02-6.85,18.3-6.71,25.15,.3l-6.68,6.52c-3.25-3.33-8.61-3.4-11.94-.14-3.33,3.25-3.39,8.61-.14,11.94l-6.68,6.52c-1.65-1.69-2.92-3.64-3.77-5.76Z"/><path class="c" d="M439.73,302.12c1.16-.85,2.49-1.48,3.93-1.83,2.86-.7,5.82-.24,8.34,1.29,5.19,3.16,6.85,9.96,3.69,15.15l-4.95-3.01c1.5-2.47,.72-5.69-1.75-7.2-2.47-1.5-5.69-.72-7.19,1.75l-4.95-3.01c.76-1.25,1.74-2.31,2.88-3.15Z"/><path class="c" d="M122.05,451.26c.1-1.44,.48-2.85,1.15-4.18,1.32-2.63,3.59-4.59,6.38-5.52,5.77-1.92,12.02,1.22,13.94,6.99l-5.5,1.83c-.91-2.74-3.88-4.23-6.62-3.32-2.74,.91-4.23,3.88-3.32,6.62l-5.5,1.83c-.46-1.39-.64-2.82-.54-4.24Z"/><path class="c" d="M654.33,62.58c-.49,1.35-1.25,2.61-2.26,3.7-1.99,2.17-4.71,3.43-7.65,3.55-6.08,.25-11.22-4.48-11.48-10.56l5.79-.24c.12,2.88,2.57,5.13,5.45,5.01,2.88-.12,5.13-2.57,5.01-5.45l5.79-.24c.06,1.46-.16,2.89-.64,4.22Z"/><path class="b" d="M194.84,52.85c1.93,0,1.93-3,0-3s-1.93,3,0,3h0Z"/><path class="b" d="M279.27,113.28c1.93,0,1.93-3,0-3s-1.93,3,0,3h0Z"/><path class="b" d="M300.8,138.11c1.93,0,1.93-3,0-3s-1.93,3,0,3h0Z"/><path class="b" d="M385.23,47.88c1.93,0,1.93-3,0-3s-1.93,3,0,3h0Z"/><path class="b" d="M583.89,61.13c1.93,0,1.93-3,0-3s-1.93,3,0,3h0Z"/><path class="b" d="M475.46,148.04c1.93,0,1.93-3,0-3s-1.93,3,0,3h0Z"/><path class="b" d="M525.95,299.53c1.93,0,1.93-3,0-3s-1.93,3,0,3h0Z"/><path class="b" d="M569.82,410.45c1.93,0,1.93-3,0-3s-1.93,3,0,3h0Z"/><path class="b" d="M527.6,451.84c1.93,0,1.93-3,0-3s-1.93,3,0,3h0Z"/><path class="b" d="M419.17,372.37c1.93,0,1.93-3,0-3s-1.93,3,0,3h0Z"/><path class="b" d="M338.87,430.31c1.93,0,1.93-3,0-3s-1.93,3,0,3h0Z"/><path class="b" d="M227.95,338.43c1.93,0,1.93-3,0-3s-1.93,3,0,3h0Z"/><path class="b" d="M63.23,446.87c1.93,0,1.93-3,0-3s-1.93,3,0,3h0Z"/><path class="b" d="M679.09,249.86c1.93,0,1.93-3,0-3s-1.93,3,0,3h0Z"/><path class="b" d="M643.49,176.19c1.93,0,1.93-3,0-3s-1.93,3,0,3h0Z"/><path class="b" d="M737.03,33.81c1.93,0,1.93-3,0-3s-1.93,3,0,3h0Z"/><path class="b" d="M718.82,389.75c1.93,0,1.93-3,0-3s-1.93,3,0,3h0Z"/><path class="b" d="M135.24,292.9c1.93,0,1.93-3,0-3s-1.93,3,0,3h0Z"/><path class="b" d="M93.7,297.2v-.83c0-.21-.04-.4-.13-.58-.06-.19-.16-.35-.31-.48-.14-.15-.3-.25-.48-.31-.18-.09-.37-.14-.58-.13l-.4,.05c-.25,.07-.47,.2-.66,.39-.08,.1-.16,.2-.23,.3-.14,.23-.2,.49-.2,.76v.83c0,.21,.04,.4,.13,.58,.06,.19,.16,.35,.31,.48,.14,.15,.3,.25,.48,.31,.18,.09,.37,.14,.58,.13l.4-.05c.25-.07,.47-.2,.66-.39,.08-.1,.16-.2,.23-.3,.14-.23,.2-.49,.2-.76h0Z"/><path class="b" d="M115.37,143.9c1.93,0,1.93-3,0-3s-1.93,3,0,3h0Z"/></svg>