<svg id="a" xmlns="http://www.w3.org/2000/svg" xmlns:xlink="http://www.w3.org/1999/xlink" viewBox="0 0 765.01 500"><defs><linearGradient id="b" x1="361.83" y1="319.98" x2="361.83" y2="268.95" gradientUnits="userSpaceOnUse"><stop offset="0" stop-color="#fff"/><stop offset="1" stop-color="#fff" stop-opacity="0"/></linearGradient><linearGradient id="c" x1="686.58" y1="118.45" x2="686.58" y2="67.42" xlink:href="#b"/><linearGradient id="d" x1="83.31" y1="394.36" x2="83.31" y2="343.32" xlink:href="#b"/><linearGradient id="e" x1="390.01" y1="271.13" x2="390.01" y2="235.88" xlink:href="#b"/><linearGradient id="f" x1="654.15" y1="448.29" x2="654.15" y2="413.04" xlink:href="#b"/><linearGradient id="g" x1="525.31" y1="85.04" x2="525.31" y2="49.79" xlink:href="#b"/><linearGradient id="h" x1="711.09" y1="185.3" x2="711.09" y2="150.04" xlink:href="#b"/><linearGradient id="i" x1="484.23" y1="85.04" x2="484.23" y2="49.79" xlink:href="#b"/><linearGradient id="j" x1="132.75" y1="61.89" x2="132.75" y2="26.63" xlink:href="#b"/><linearGradient id="k" x1="95.97" y1="101.82" x2="95.97" y2="66.56" xlink:href="#b"/></defs><path d="m359.55 317.61 2.02-48.57c0-.05.05-.09.1-.09s.09.04.09.09l2.35 48.56a2.282 2.282 0 1 1-4.56.22v-.2Z" style="fill:url(#b)"/><path d="m684.31 116.08 2.02-48.57c0-.05.05-.09.1-.09s.09.04.09.09l2.35 48.56a2.282 2.282 0 1 1-4.56.22v-.2Z" style="fill:url(#c)"/><path d="m81.03 391.99 2.02-48.57c0-.05.05-.09.1-.09s.09.04.09.09l2.35 48.56a2.282 2.282 0 1 1-4.56.22v-.2Z" style="fill:url(#d)"/><path d="m388.43 269.49 1.39-33.55s.03-.06.07-.06c.03 0 .06.03.06.06l1.62 33.54a1.577 1.577 0 1 1-3.15.15v-.14Z" style="fill:url(#e)"/><path d="m652.57 446.66 1.39-33.55s.03-.06.07-.06c.03 0 .06.03.06.06l1.62 33.54a1.577 1.577 0 1 1-3.15.15v-.14Z" style="fill:url(#f)"/><path d="m523.74 83.4 1.39-33.55s.03-.06.07-.06c.03 0 .06.03.06.06l1.62 33.54a1.577 1.577 0 1 1-3.15.15v-.14Z" style="fill:url(#g)"/><path d="m709.52 183.66 1.39-33.55s.03-.06.07-.06c.03 0 .06.03.06.06l1.62 33.54a1.577 1.577 0 1 1-3.15.15v-.14Z" style="fill:url(#h)"/><path d="m482.66 83.4 1.39-33.55s.03-.06.07-.06c.03 0 .06.03.06.06l1.62 33.54a1.577 1.577 0 1 1-3.15.15v-.14Z" style="fill:url(#i)"/><path d="m131.18 60.25 1.39-33.55s.03-.06.07-.06c.03 0 .06.03.06.06l1.62 33.54a1.577 1.577 0 1 1-3.15.15v-.14Z" style="fill:url(#j)"/><path d="m94.4 100.18 1.39-33.55s.03-.06.07-.06c.03 0 .06.03.06.06l1.62 33.54a1.577 1.577 0 1 1-3.15.15v-.14Z" style="fill:url(#k)"/></svg>