<svg xmlns="http://www.w3.org/2000/svg" viewBox="0 0 500 500"><defs><style>.b,.c,.d{opacity:.6}.k{fill:none;stroke-linecap:round;stroke-linejoin:round}.k{stroke-width:1.18px}.l,.c,.m,.n{fill:#96c1fa}.l{opacity:.25}.d,.q{fill:#9973d1}.r{fill:#fafaff}.k{stroke:#96c1fa}.s{fill:#ebf5ff}.n{opacity:.4}</style></defs><g style="isolation:isolate"><g id="a"><circle class="s" cx="230.09" cy="184.61" r="147.94"/><circle class="s" cx="204.81" cy="393.11" r="82.19"/><rect class="l" x="223.43" y="34.11" width="10.96" height="10.96" rx="2.19" ry="2.19"/><rect class="l" x="391.29" y="231.46" width="10.96" height="10.96" rx="2.19" ry="2.19"/><rect class="l" x="129.75" y="132.04" width="10.96" height="10.96" rx="2.19" ry="2.19"/><rect class="l" x="64.73" y="242.42" width="21.92" height="21.92" rx="2.19" ry="2.19"/><rect class="l" x="42.82" y="220.5" width="32.88" height="32.88" rx="2.19" ry="2.19"/><rect class="l" x="206.99" y="57.81" width="21.92" height="21.92" rx="2.19" ry="2.19"/><rect class="l" x="402.08" y="327.74" width="21.92" height="21.92" rx="2.19" ry="2.19"/><rect class="l" x="89.63" y="370.93" width="21.92" height="21.92" rx="2.19" ry="2.19" transform="rotate(180 100.585 381.895)"/><rect class="l" x="342.03" y="370.93" width="10.96" height="10.96" rx="2.19" ry="2.19"/><g style="opacity:.25"><path class="m" d="M292.16 107.09c-2.87 1.24-3.51 2.24-4.3 6.72-.79-4.48-1.43-5.48-4.3-6.72 2.86-1.24 3.51-2.24 4.3-6.72.79 4.48 1.43 5.48 4.3 6.72ZM430.78 65.47c-2.87 1.24-3.51 2.24-4.3 6.71-.79-4.48-1.43-5.48-4.3-6.71 2.87-1.24 3.51-2.24 4.3-6.72.79 4.48 1.43 5.48 4.3 6.72ZM147.3 354.44c-2.87 1.24-3.51 2.24-4.3 6.71-.79-4.48-1.43-5.48-4.3-6.71 2.86-1.24 3.51-2.24 4.3-6.72.79 4.48 1.43 5.48 4.3 6.72ZM63.55 143.8c-2.86 1.24-3.51 2.24-4.3 6.72-.79-4.48-1.43-5.48-4.3-6.72 2.86-1.24 3.51-2.24 4.3-6.72.79 4.48 1.43 5.48 4.3 6.72ZM300.75 269.22c-2.87 1.24-3.51 2.24-4.3 6.72-.79-4.48-1.43-5.48-4.3-6.72 2.86-1.24 3.51-2.24 4.3-6.72.79 4.48 1.43 5.48 4.3 6.72Z"/></g><g class="b"><path class="m" d="M313.61 414.27h120.57l-.78-.99a22.96 22.96 0 0 0-18.01-8.72h-11.44l-5.48-8.07a22.971 22.971 0 0 0-20.18-10.03c-7.11.36-13.65 4-17.7 9.85l-4.54 6.54-20.13-.63c-6.32-.2-12.44 2.22-16.92 6.68l-5.38 5.36ZM127.17 330.07h-73.4l1.09-2.56a8.297 8.297 0 0 1 6.44-4.96l12.04-1.74 1.86-4.64c2.14-5.31 7.29-8.79 13.01-8.79 6.7 0 12.46 4.74 13.76 11.31l1.32 6.68 15.13-1.39c4.01-.37 7.7 2.2 8.75 6.08ZM383.58 182.4h73.39l-.86-2.03a9.311 9.311 0 0 0-7.23-5.57l-11.47-1.65-2.51-6.23a12.71 12.71 0 0 0-10.61-7.92c-5.61-.53-10.9 2.69-13 7.92l-3.33 8.28-15.6.34c-4.13.09-7.7 2.89-8.77 6.87Z"/></g><circle class="k" cx="380.29" cy="97.28" r="29" transform="rotate(-63.96 380.26 97.293)"/><path class="k" d="M398.08 92.18c4.41 15.4-1.03 30.46-9.79 32.98-8.76 2.51-17.52-8.48-21.93-23.88s-2.81-29.36 5.94-31.87c8.76-2.51 21.36 7.38 25.78 22.78Z"/><path class="k" d="M372.3 69.41a185.361 185.361 0 0 1 15.99 55.75"/><path class="k" d="M351.93 103.35c19.72.07 38.93-5.46 55.62-15.97M352.62 88.61c16.35-.72 32.31-5.3 46.56-13.35M358.17 116.04c17.92-.4 35.42-5.42 50.83-14.57"/><path class="m" d="M369.56 101.53a3.011 3.011 0 0 0-3.71-2.06 3.011 3.011 0 0 0-2.06 3.71 3.011 3.011 0 0 0 3.71 2.06 3.011 3.011 0 0 0 2.06-3.71ZM394.24 77.89a3.011 3.011 0 0 0-3.71-2.06 3.011 3.011 0 0 0-2.06 3.71c.46 1.59 2.12 2.51 3.71 2.06s2.51-2.12 2.06-3.71ZM402.66 105.06c-.46-1.59-2.12-2.51-3.71-2.06s-2.51 2.12-2.06 3.71c.46 1.59 2.12 2.51 3.71 2.06s2.51-2.12 2.06-3.71Z"/><circle class="d" cx="128.36" cy="82.6" r="35"/><g style="mix-blend-mode:multiply;opacity:.6"><path class="m" d="M128.36 47.6c-7.43 0-14.32 2.32-19.98 6.27.51 7.18 6.97 14.12 13.42 11.96 7.68-2.57 4.08-10.03 7.6-11.37 3.52-1.34 8.35-3.22 8.41-5.57-3.01-.84-6.18-1.3-9.45-1.3ZM109.75 82.29c-.35-8.49.17-15.8-10.49-19.14a34.787 34.787 0 0 0-5.9 19.45c0 1.13.06 2.25.16 3.36 3.4 12.6 16.04 11.37 23.07 14.27 7.03 2.91 4.85 12.33 7.97 13.06s4.45-14.01 1.03-19.12c-3.42-5.12-15.55-4.89-15.83-11.88ZM142.79 50.72c6.97 13.61 1.57 15.12-7.46 19.42-9.7 4.62-6.97 12.46 4.35 14.54 6.63 1.22 5.41 14.69 10.92 13 9.36-2.87-3.11-18.58 12.72-13.55.02-.51.04-1.02.04-1.53 0-14.18-8.44-26.39-20.57-31.88Z"/></g><g style="mix-blend-mode:multiply;opacity:.3"><path class="q" d="M161.32 70.82c-.59-1.64-1.29-3.23-2.11-4.75-6.55 5.3-16.19 12.11-29.1 19.56-12.92 7.46-23.63 12.4-31.48 15.43.92 1.47 1.94 2.87 3.06 4.19 8.5-3.36 19.15-8.49 30.92-15.29 11.78-6.8 21.55-13.46 28.71-19.14ZM136.61 96.89c9.92-5.73 19.1-11.75 26.6-17.42-.17-1.91-.48-3.77-.95-5.58-7.67 5.99-17.46 12.49-28.16 18.67-10.69 6.17-21.21 11.4-30.23 15.05a34.77 34.77 0 0 0 4.34 3.61c8.66-3.66 18.47-8.6 28.39-14.33Z"/></g><path class="q" d="M167.19 71.19c-8.16 6.92-19.73 14.82-32.58 22.24s-25.48 13.49-35.55 17.1c-7.04 2.51-11.63 3.4-14.67 3.4-3.69 0-5.1-1.31-5.83-2.58-1.34-2.31-1.65-6.63 10.96-17.33 1.46-1.23 3.02-2.5 4.68-3.79.4 1.77.92 3.49 1.57 5.15-8.28 6.62-12.53 11.49-12.8 13.41 3.24 1.38 21.69-3.85 49.14-19.69s41.19-29.22 41.64-32.7c-1.77-.75-8.14.5-18.04 4.38a35.086 35.086 0 0 0-3.67-3.94c1.95-.79 3.82-1.52 5.62-2.16 15.58-5.58 19.16-3.14 20.49-.83 1.34 2.32 1.66 6.64-10.96 17.34Z"/><rect class="q" x="274.15" y="45.84" width="22.88" height="22.88" rx="4.68" ry="4.68" transform="rotate(-22 285.579 57.273)"/><path class="m" d="M272.64 51.44h-.02l-.08.19c.03-.07.07-.12.1-.19ZM296.15 65.36l-12.54 5.07c-2.4.97-5.12-.19-6.09-2.59l-5.07-12.54c-.47-1.16-.43-2.4 0-3.48l-2.6 6.13h.02c-.6 1.18-.73 2.59-.2 3.9l5.07 12.54c.97 2.4 3.7 3.55 6.09 2.59l12.54-5.07a4.69 4.69 0 0 0 2.61-2.67h.01l2.7-6.36c-.47 1.09-1.35 2-2.54 2.47ZM298.71 62.81l.11-.26h-.02c-.03.08-.05.17-.09.26Z"/><path d="M290.53 52.34c-2.89-3.21-7.28-1.72-7.28-1.72l4.33 10.71c.53 1.31-.1 2.8-1.41 3.32l-1.52.62c-1.31.53-2.8-.1-3.32-1.41h0c-.53-1.31.1-2.8 1.41-3.32l3.89-1.57" style="stroke-width:1.18px;fill:none;stroke-linecap:round;stroke-linejoin:round;stroke:#fafaff"/><path class="d" d="m446.56 258.85-141.6 84.02c-1.3.77-2.97.33-3.73-.97-.75-1.31-.3-2.98 1.02-3.71l143.56-80.62c.36-.2.81-.08 1.02.28.2.36.09.81-.27 1.02Z"/><path class="n" d="M358.17 204.77v51.02c0-14.34-18.26-26.47-43.42-30.54a3.996 3.996 0 0 1-3.37-3.94V178.4c0-2.5 2.26-4.37 4.72-3.94 24.47 4.28 42.07 16.24 42.07 30.31Z"/><path style="stroke:#9973d1;stroke-width:1.18px;fill:none;stroke-linecap:round;stroke-linejoin:round" d="M319.8 191.12v18.1l6.03-9.63 1.53 18.74 5.63-13.56 3.01 7.24 5.04-11.7 2.31 12.51 7.05-9.91v15.42"/><path class="q" d="M353.17 224.53v4.95c-2.23 1.98-4.8 3.84-7.69 5.55v-4.95c2.89-1.71 5.46-3.57 7.69-5.55ZM353.17 234.44v4.95c-2.23 1.98-4.8 3.84-7.69 5.55v-4.95c2.89-1.71 5.46-3.57 7.69-5.55ZM333.53 267.18c3.6-1.41 6.89-3.01 9.82-4.78v-31.11c-2.98 1.6-6.27 3.06-9.82 4.35v31.54Z"/><path class="c" d="M358.17 204.77v51.02c0 10.33-9.48 19.51-24.2 25.37-2.61 1.04-5.44-.93-5.44-3.73v-42.48c0-1.69 1.07-3.2 2.66-3.76 16.29-5.77 26.98-15.44 26.98-26.41Z"/><path class="n" d="M130.38 175.17v50.58c0 1.63-.99 3.1-2.5 3.7-15.45 6.22-25.14 15.17-25.14 25.12v-59.26c0-9.25 8.37-17.65 21.97-23.79 2.66-1.2 5.67.73 5.67 3.64Z"/><path class="q" d="M177.75 252.2v14.26c0 2.27-1.89 4.08-4.15 4-15.44-.54-29.61-3.09-41.14-7.06a4.006 4.006 0 0 1-2.7-3.79v-13.85c0-2.71 2.63-4.62 5.21-3.81 11.13 3.52 24.48 5.76 38.94 6.24 2.15.07 3.85 1.84 3.85 3.99Z"/><path class="c" d="M212.76 230.88v51.13c0 1.93-1.38 3.59-3.28 3.94-9.15 1.7-19.2 2.63-29.74 2.63-42.53 0-77-15.22-77-34v-59.26c0 18.78 34.47 34 77 34 10 0 19.54-.84 28.31-2.37 2.46-.43 4.71 1.44 4.71 3.93Z"/><path class="m" d="M179.74 229.32c-42.53 0-77-15.22-77-34v10c0 18.78 34.47 34 77 34 11.82 0 23.01-1.17 33.02-3.28v-5.16c0-2.5-2.25-4.36-4.71-3.93-8.76 1.53-18.31 2.37-28.31 2.37Z"/><path class="r" d="M147.24 253.32v7.15c0 .7.69 1.18 1.34.94l6.94-2.55a1 1 0 0 0 .21-1.77l-6.94-4.6c-.66-.44-1.55.04-1.55.83Z"/><path d="M116.56 264.01c13.91 8.81 37.01 14.57 63.18 14.57 4.13 0 8.18-.15 12.14-.43" style="stroke-width:2px;fill:none;stroke-linecap:round;stroke-linejoin:round;stroke:#fafaff"/><path d="M116.56 264.01c10.41 6.59 25.95 11.47 44.07 13.52" style="stroke:#9973d1;stroke-width:2px;fill:none;stroke-linecap:round;stroke-linejoin:round"/><circle class="q" cx="160.63" cy="277.52" r="3"/><path class="c" d="M163.63 277.52c0 1.65-1.34 3-3 3a3.01 3.01 0 0 1-2.93-2.36c-16.8-2.2-31.52-6.89-41.67-13.32a.982.982 0 0 1-.31-1.37c.29-.47.91-.61 1.37-.31 9.91 6.27 24.35 10.86 40.86 13.02.49-.99 1.51-1.66 2.68-1.66 1.66 0 3 1.34 3 3Z"/><path class="q" d="M206.81 230.19v3.92c-1.32.23-2.65.44-4 .63v-3.95c1.35-.17 2.68-.37 4-.6ZM198.81 231.28v3.97c-1.32.15-2.65.28-4 .4v-3.97c1.34-.12 2.67-.25 4-.4ZM190.81 231.98v3.98c-1.33.09-2.66.16-4 .22v-4c1.34-.05 2.67-.12 4-.2Z"/><g class="b"><path class="m" d="M206.81 230.19v3.92c-1.32.23-2.65.44-4 .63v-3.95c1.35-.17 2.68-.37 4-.6ZM198.81 231.28v3.97c-1.32.15-2.65.28-4 .4v-3.97c1.34-.12 2.67-.25 4-.4ZM190.81 231.98v3.98c-1.33.09-2.66.16-4 .22v-4c1.34-.05 2.67-.12 4-.2Z"/></g><path class="r" d="M124.09 185.24c0 1.57-1.13 2.85-2.52 2.85s-2.52-1.28-2.52-2.85 1.13-2.85 2.52-2.85 2.52 1.28 2.52 2.85Z"/><path class="d" d="M124.09 195.32c0 1.57-1.13 2.85-2.52 2.85s-2.52-1.28-2.52-2.85 1.13-2.85 2.52-2.85 2.52 1.28 2.52 2.85Z"/><ellipse class="q" cx="121.56" cy="205.39" rx="2.52" ry="2.85"/></g></g></svg>