<?xml version="1.0" encoding="UTF-8"?><svg xmlns="http://www.w3.org/2000/svg" xmlns:xlink="http://www.w3.org/1999/xlink" viewBox="0 0 500 500"><defs><style>.c {
  fill: #e7b7b7;
}

.d, .e, .f, .g, .h, .i, .j {
  fill: none;
}

.d, .f, .k {
  stroke-miterlimit: 10;
}

.d, .k {
  stroke: #e58a45;
  stroke-width: .75px;
}

.l {
  fill: #bf504c;
}

.m {
  fill: #193b59;
}

.n {
  font-family: Poppins-ExtraBold, Poppins ExtraBold;
  font-size: 15px;
}

.n, .k, .o, .p {
  fill: #fafaff;
}

.e, .g, .h {
  stroke-width: 1.18px;
}

.e, .g, .h, .j {
  stroke-linecap: round;
  stroke-linejoin: round;
}

.e, .j {
  stroke: #7a1f0c;
}

.q {
  isolation: isolate;
}

.f {
  stroke-width: 3px;
}

.f, .g {
  stroke: #fafaff;
}

.r {
  opacity: .35;
}

.s {
  clip-path: url("#b");
}

.t {
  fill: #e3a2a2;
}

.o {
  font-family: Poppins-SemiBold, Poppins SemiBold;
  font-size: 12px;
}

.u {
  fill: #e58a45;
}

.v {
  fill: #9973d1;
}

.h {
  stroke: #193b59;
}

.j {
  stroke-width: .59px;
}

.w {
  fill: #96c1fa;
}

.x {
  fill: #7a1f0c;
}

.y {
  mix-blend-mode: multiply;
}

</style><clipPath id="b"><path class="i" d="M235.13,123.26v-2.58c0-2.14,1.73-3.88,3.87-3.88h15.5c2.14,0,3.87,1.73,3.87,3.88v2.58c0,2.14-1.73,3.88-3.87,3.88h-15.5c-2.14,0-3.87-1.73-3.87-3.88Z"></path></clipPath></defs><g class="q"><g id="a"><g><g><g><path class="c" d="M236.86,398.19l-16.33,30.87s-7.8-2.6-19.55-11.31l14.33-33.1,21.55,13.53Z"></path><g><path class="v" d="M192.66,431.28l51.28,28.42s5.8-8.67-2.81-15.26c-9.21-7.05-18.62-13.24-18.54-15.12,.08-1.88,.93-1.93,.8-2.93-.21-1.49-2.24-3.08-3.19-2.66-1.35,.59-.96,2.03-3.19,1.53-6.23-1.39-12.11-6.62-13.83-9.46-1.2-1.97-3.8-1.1-4.37,3.39-.64,5.05-5.34,7.91-6.14,12.08Z"></path><rect class="m" x="188.28" y="445.32" width="58.64" height="2.88" transform="translate(243.88 -49.48) rotate(29)"></rect><path class="p" d="M243.94,459.7s5.8-8.67-2.81-15.26c-.92-.71-1.85-1.41-2.77-2.09-5-1.15-9.3,2.46-12.36,7.41l17.93,9.94Z"></path><g><path class="p" d="M212.26,431.12s-4.92,1.08-12.14,1.14l3.19,1.77c7.22-.07,12.14-1.14,12.14-1.14l-3.19-1.77Z"></path><path class="p" d="M218.79,434.74s-4.92,1.08-12.14,1.14l3.19,1.77c7.22-.07,12.14-1.14,12.14-1.14l-3.19-1.77Z"></path></g><g><path class="g" d="M222.32,430.71c6.98-1.51,11.96,1.51,10.54,4.01-2.01,3.54-10.54-4.01-10.54-4.01Z"></path><path class="g" d="M222.32,430.71c4.8,.06,10.01,8.08,7.25,8.26-3.74,.24-7.25-8.26-7.25-8.26Z"></path><path class="g" d="M233.26,427.69s-6.37-2.35-10.94,3.02c0,0,6.93-4.06,11.28,.26"></path></g></g></g><g><path class="c" d="M179.67,393.36l-18.96,29.33s-9.52,.38-20.46-9.32l19.13-35.37,20.29,15.36Z"></path><g><path class="v" d="M162.36,422.1c-.07-1.5-.5-2.14-1.43-1.69-1.42,.69-2.13,.57-3.29,.26,.64-1,.29-1.95-.16-2.39-1.53-1.48-5.74-3.63-6.94-3.78-.48-.06-1.98,.72-2.98,1.98-3.57-1.65-4.46-4.05-5.18-5.52-1.02-2.07-2.68-.78-4.61,3.32-1.92,4.07-2.2,4-5.01,8.19,0,0,2.05,12.6,4.24,21.85,.13,.58,.27,1.15,.41,1.7,.01,.01,.01,.02,.01,.02,.21,.86,.43,1.68,.65,2.44l.03,.12c.1,.32,.19,.63,.27,.93,.28,.89,.54,1.68,.8,2.34,1.28,3.21,6.77,6.04,12.39,6.34h.15c7.84,0,7.77-4.03,7.66-11.85v-.11c-.33-7.65-.44-17.41,.86-20.53,.72-1.74,2.18-2.62,2.13-3.63Z"></path><path class="m" d="M131.15,424.86s3.65,23.1,5.45,27.88c2.85,7.57,17.81,9.55,21.21,5.64,1.17-1.35,1.28-4.91,1.28-4.91-3.72,2.24-16.82,5.02-19.9-1.6-1.86-4-6.42-29.4-6.42-29.4l-1.61,2.39Z"></path><path class="p" d="M159.37,446.37c.11,7.82,.18,11.85-7.66,11.85h-.15c-5.62-.3-10.82-3.26-12.39-6.34-.93-1.82-2.08-7.57-2.08-7.57,5.32-5.14,20.31-3.79,22.28,1.95v.11Z"></path><g><polygon class="p" points="135.19 425.79 135.63 427.92 141.05 431.23 140.61 429.11 135.19 425.79"></polygon><polygon class="p" points="136.12 430.54 136.56 432.66 141.97 435.98 141.54 433.86 136.12 430.54"></polygon></g><g><path class="g" d="M152.09,424.32c-3.49,0-8.99,6.69-6.35,8.04,4.92,2.52,6.35-8.04,6.35-8.04Z"></path><path class="g" d="M152.09,424.32c3.66,1.5,7.88,8.43,4.52,9.65-5.07,1.85-4.52-9.65-4.52-9.65Z"></path><path class="g" d="M143.17,429.2c4.39-5.47,8.91-4.89,8.91-4.89,6.31,.94,8.55,6.92,8.55,6.92"></path></g></g></g><g><path class="m" d="M235.68,412.69s-18.84,.64-28.4-13.23c0,0,19.36-45.66,20.15-55.39,2.02-24.87-2.13-47.01-2.13-47.01,0,0-11.59,31.43-16.81,46.74-8.76,25.7-32.79,66.11-32.79,66.11-22.12-3.57-25.92-16.19-25.92-16.19,17.89-40.31,27.26-60.72,27.26-60.72,10.49-39.63,6.82-51.54,18.31-75.54h71.86s0,37.07-4.74,80.57c-2.42,22.21-26.77,74.67-26.77,74.67Z"></path><g class="y"><path class="h" d="M160.63,396.77s24.53-48.96,27.77-57.96,13.92-62.4,13.92-62.4"></path><path class="h" d="M212.76,266.04c-4.28,10.85-20.88,14.21-20.88,14.21"></path><path class="h" d="M225.29,297.06l4.8-11.16s8.35-2.99,9.97-12.75"></path><path class="h" d="M222.24,402.58s17.78-50.77,19.2-58.78c2.16-12.19-6.87-60.71-6.87-60.71"></path></g></g></g><g><path class="c" d="M318.71,139.47c.43-.99,2.36-3.55-.66-7.47-1.51-1.96-2.91-8.05-3.19-8.79-.9-2.35-.51-6.14-.67-7.02-.07-.39,1.76-1.4,3.34,.53,.62,.76,.98,1.97,1.21,4.2,.12,1.17,1.42,4.05,2.3,4.08,1.13,.04,1.88-.44,2.27-1.92,1-3.78-1.6-17.2-.9-18.21,.57-.84,2.86-1.38,3.38,.9,.32,1.42,1.04,6.65,1.97,6.67,.55,.01,1.23-4.79,1.8-9.24,.36-2.75,3.39-1.73,3.41-.41,.04,2.89,.03,5.37,.37,5.73,.26,.28,.92-1.87,1.2-2.42,.82-1.6,3.11-.88,3.13,.67,0,.51-.67,8.36,.24,8.57,.61,.14,1-2.38,1.12-2.62,.89-1.7,3.37-.96,2.93,1.28-.38,1.95-1.99,10.4-2.52,12.48-.69,2.73-1.7,8.13-6.48,19.62l-14.28-6.65Z"></path><path class="c" d="M332.99,146.12c-5.03,12.4-15.79,59.14-24.92,61.69-9.36,2.61-25.63-7.75-25.63-7.75l5.32-28.16,13.27,5.78c5.06-13.43,17.67-38.21,17.67-38.21l14.29,6.65Z"></path><path class="e" d="M300.87,177.68c-1.16,8.12,0,13.86,0,13.86"></path><g><path class="j" d="M325.64,125.03c4.72,2.51,5.79,8.26,5.79,8.26"></path><path class="j" d="M327.76,112.45c.29,2.18,.33,6.17,.33,6.17"></path><path class="j" d="M333.35,108.53c-.18,4.87-.94,10.84-.94,10.84"></path><path class="j" d="M337.92,115.36c-.17,1.38-.96,5.47-.96,5.47"></path></g></g><g><path class="v" d="M297.84,174.78s2.77,15.99-6.39,31.02l-23.96-8.44c0,31.3,.52,66.66,.52,66.66-44.27,6.5-74.86-4.69-74.86-4.69,7.71-41.3,7.73-63.07,7.73-63.07l-20.79,12.91c-12.39-11.76-8.6-29.25-8.6-29.25,0,0,25.95-23.57,35.44-23.57h51.22c9.48,0,39.69,18.43,39.69,18.43Z"></path><g><path class="h" d="M200.88,196.26c1.14-4.23,1.92-16.92,1.92-16.92"></path><path class="h" d="M267.49,197.36c-.58-5.67-1.98-18.58-1.98-18.58"></path><path class="h" d="M204.81,251.22c37.26,9.36,53.91-5.41,53.91-5.41"></path></g><g><path class="p" d="M218.85,156.35c-2.73,7.99,5.34,17.14,16.76,15.99,17.38-1.75,10.9-15.99,10.9-15.99h-27.66Z"></path><path class="p" d="M290.97,170.74c.85,13.28-4.02,26.33-6.76,32.5l7.24,2.55c9.16-15.03,6.39-31.02,6.39-31.02,0,0-2.77-1.69-6.87-4.03Z"></path></g><g><g><text class="n" transform="translate(215.76 198.66) rotate(3.66)"><tspan x="0" y="0">M</tspan></text><text class="n" transform="translate(229.27 199.45) rotate(1.32)"><tspan x="0" y="0">E</tspan></text><text class="n" transform="translate(238.62 199.63) rotate(-.98)"><tspan x="0" y="0">T</tspan></text><text class="n" transform="translate(246.73 199.51) rotate(-3.71)"><tspan x="0" y="0">A</tspan></text></g><g><text class="o" transform="translate(215.22 211.87) rotate(4.42)"><tspan x="0" y="0">V</tspan></text><text class="o" transform="translate(224.2 212.51) rotate(2.32)"><tspan x="0" y="0">E</tspan></text><text class="o" transform="translate(232.41 212.81) rotate(.22)"><tspan x="0" y="0">R</tspan></text><text class="o" transform="translate(241.16 212.79) rotate(-1.97)"><tspan x="0" y="0">S</tspan></text><text class="o" transform="translate(249.54 212.46) rotate(-4.4)"><tspan x="0" y="0">E</tspan></text></g></g><path class="f" d="M207.67,218.33c30.32,3.76,54.29,.85,54.29,.85"></path></g><g><path class="m" d="M257.34,118.8c-2.01,6.72-4.49,8.7-9.58,10.79l-23.99,10.04c-7.08-7.66-8.49-11.2-8.49-21.61-1.97-6.36,.93-11.3,.93-11.3-1.57,.12-2.41,1.43-2.51,1.59,3.04-13.27,12.34-11.11,12.34-11.11,2.95-5.34,8.16-5.61,8.16-5.61-.36,.48-.69,1.26-.96,2.14,12.38-3.9,21.76,3.47,21.76,3.47h-5c10.04,4.49,12.92,15.45,7.34,21.6Z"></path><g><path class="c" d="M243.99,159.56c0,4.88-5.22,6.96-10.74,6.96-8.04,0-12.01-6.66-12.01-9.39l2.94-33.22,17.13,3.46c-.24,2.51,1.93,24.8,2.68,32.2Z"></path><path class="x" d="M242.03,138.86l-13.87-1.34s.66,11.11,14.89,12.55l-1.03-11.21Z"></path></g><path class="c" d="M253.18,112.23c3.32,5.28,1.08,8.14,1.08,13.39,0,5.63,2.16,13.63-2.36,17.8-4.68,4.32-15.51,4.53-22.92-4.82-7.49-9.44-5.78-25.19,2.35-29.26,6.96-3.48,17.26-4.41,21.85,2.89Z"></path><path class="m" d="M256.42,118.79c-5.99,.83-13.07,.43-16.1-6.78-.38,4.01-3.66,5.39-7.09,5.75-5.9,2.84-4.94,10.36-6.98,10.36-1.18,0-1.08-5.05-2.11-6.68-4.21-6.71-1.71-13.69,5.59-16.93,7.29-3.23,16.39-4.27,21.49,0,5.1,4.28,5.2,14.28,5.2,14.28Z"></path><g><path class="x" d="M248.59,133.75c2.58,0,3.09-.52,3.5-1.2,.25-.42,.02-1.24-.52-3.07-.37-1.25-.8-2.68-1.02-3.98-.03-.16-.18-.27-.35-.25-.16,.03-.27,.18-.25,.35,.23,1.34,.68,2.84,1.04,4.05,.31,1.02,.68,2.3,.61,2.55-.28,.46-.56,.94-3,.94-.17,0-.3,.14-.3,.3s.13,.3,.3,.3Z"></path><path class="t" d="M231.68,127.04c-.84,1.58-.39,3.45,1,4.19,1.39,.74,3.2,.06,4.04-1.51,.84-1.58,.39-3.45-1-4.19-1.39-.74-3.2-.06-4.04,1.51Z"></path><g><path class="m" d="M243.55,123.04c0,1.09,.52,1.98,1.16,1.98s1.16-.89,1.16-1.98-.52-1.98-1.16-1.98-1.16,.89-1.16,1.98Z"></path><path class="m" d="M246.78,119.42c-.24,.83-2.32-.67-3.54-.55-2.07,.21-2.16,1.25-2.91,1.06-.1-.95,1.22-2.17,3.02-2.29,2.66-.18,3.43,1.78,3.43,1.78Z"></path></g><g><path class="m" d="M252.23,123.9c0,.91,.43,1.64,.96,1.64s.96-.74,.96-1.64-.43-1.64-.96-1.64-.96,.74-.96,1.64Z"></path><path class="m" d="M251.75,120.6c0,.65,1.75-.02,2.51,.32,1.27,.55,1.3,1.57,1.65,1.41,.27-.61-.2-1.84-1.37-2.31-1.73-.69-2.8,.58-2.8,.58Z"></path></g><g><path class="x" d="M242.18,134.39c2.52,2.34,5.77,3.13,5.77,3.13,0,0-2.59,2.69-4.68,2.33-2.09-.36-1.09-5.47-1.09-5.47Z"></path><path class="l" d="M241.95,136.68c-.03,1.41,.2,2.98,1.32,3.18,.86,.15,1.81-.22,2.62-.71-.72-1.13-2-2.36-3.94-2.47Z"></path></g></g><g><path class="c" d="M224.14,121.45c-2.08-2.7-6.26-1.89-7.24,1.49-.68,2.33,0,8.9,6.61,8.45,0,0,2.15-7.97,.63-9.95Z"></path><path class="x" d="M223.24,127.72s-.06,0-.09-.01c-.19-.05-.31-.24-.26-.44,.43-1.74-.03-3.59-1.06-4.31-.6-.42-1.31-.36-2.06,.14-.16,.11-.39,.07-.5-.1-.11-.16-.07-.39,.1-.5,1-.68,2.02-.73,2.87-.14,1.28,.89,1.85,3.02,1.35,5.07-.04,.16-.19,.27-.35,.27Z"></path></g><g><rect class="p" x="228.67" y="115.51" width="25.83" height="12.92" rx="5.17" ry="5.17" transform="translate(483.17 243.93) rotate(180)"></rect><rect class="u" x="233.84" y="115.51" width="25.83" height="12.92" rx="5.17" ry="5.17" transform="translate(493.51 243.93) rotate(180)"></rect><rect class="p" x="241.59" y="110.34" width="10.33" height="23.25" rx="3.87" ry="3.87" transform="translate(368.72 -124.79) rotate(90)"></rect><path class="p" d="M214.77,123.04h16.49v-4.24h-15.49c-.55,0-1,.45-1,1v3.24h0Z"></path><g class="s"><g class="r"><rect class="w" x="250.12" y="107.63" width="2.12" height="25.11" transform="translate(528.8 98.68) rotate(150)"></rect><rect class="w" x="242.17" y="112.01" width="4" height="25.11" transform="translate(517.91 110.36) rotate(150)"></rect></g></g><path class="u" d="M244.82,122.61h3.87c.36,0,.65-.29,.65-.65h0c0-.36-.29-.65-.65-.65h-3.87c-.36,0-.65,.29-.65,.65h0c0,.36,.29,.65,.65,.65Z"></path><ellipse class="p" cx="221.23" cy="125.02" rx="6.5" ry="7"></ellipse><ellipse class="k" cx="219.23" cy="125.02" rx="6.5" ry="7"></ellipse><ellipse class="d" cx="219.23" cy="125.02" rx="2.5" ry="3"></ellipse></g></g><g><path class="c" d="M172.8,208.56c-10.26-4.1-6.18-31.21,21.82-75.53l9.68,7.96c-17.46,35.4-9.6,76.32-31.5,67.57Z"></path><path class="c" d="M194.62,133.04s8.11-8.7,9.89-10.34c1.21-1.11,6.22-4.18,9.07-4.72,2.65-.5,9.48-1.48,9.78-.76,.94,2.31-1.59,2.23-1.59,2.23,0,0,.25,.93-.54,1.46-.46,.31-2.44,.5-2.44,.5,0,0,.84,1.01,.07,1.76-.95,.93-5.3,.16-7.85,2.06-1.36,1.02-2.05,3.88-.02,5.59s4.53,.59,4.53,.59c0,0,4.65-.64,5.37,.91s-4.2,2.23-4.2,2.23c0,0-6.07,1.01-6.33,1.12-1.98,.9-6.06,5.31-6.06,5.31l-9.68-7.96Z"></path><g><path class="j" d="M218.78,121.42c-.57-.45-4.94-.22-5.79-.16s-4.21,1.24-5.15,1.87"></path><path class="j" d="M221.77,119.45c-.13-.44-.47-.65-.75-.66-.28,0-4.93,.18-6.15,.33-1.92,.23-6.28,2.01-7.6,2.84"></path><path class="j" d="M212.77,124.36s-3.74,2.28-3.87,2.5-1.04,2.65-1.38,3.28c-.34,.63,.32,2.47-1.76,5.31"></path></g></g></g></g></g></svg>